<svg viewBox="0 0 100 100" style="flex-grow: 4;"><g><line x1="48.7" x2="48.7" y1="100" y2="88" stroke-width="2.6" stroke="black"></line><g><line x1="48.7" x2="51.53699479234022" y1="88" y2="82.23803470095899" stroke-width="2.185020748946122" stroke="black"></line><g><line x1="51.53699479234022" x2="56.42757304740507" y1="82.23803470095899" y2="78.14677615493162" stroke-width="1.8703926977896146" stroke="black"></line><g><line x1="56.42757304740507" x2="63.37618031661974" y1="78.14677615493162" y2="76.42409583562775" stroke-width="1.3970477986803809" stroke="black"></line><g><line x1="63.37618031661974" x2="70.0899827757396" y1="76.42409583562775" y2="77.62213561163865" stroke-width="1.2020789004180117" stroke="black"></line><g></g><g><line x1="70.0899827757396" x2="77.02916187114194" y1="77.62213561163865" y2="75.58300541447548" stroke-width="0.8869205850203271" stroke="black"></line><g><line x1="77.02916187114194" x2="81.17590539092461" y1="75.58300541447548" y2="71.94262512897797" stroke-width="0.7780781307472183" stroke="black"></line><g><line x1="81.17590539092461" x2="83.27670731310828" y1="71.94262512897797" y2="67.26427013590973" stroke-width="0.6539957570637996" stroke="black"></line><g><line x1="83.27670731310828" x2="83.36203409368652" y1="67.26427013590973" y2="62.570151740916536" stroke-width="0.5551634707219237" stroke="black"></line><g><line x1="83.36203409368652" x2="81.67164739428185" y1="62.570151740916536" y2="58.60687268636249" stroke-width="0.49841313597824854" stroke="black"></line><g><line x1="81.67164739428185" x2="78.93018208731982" y1="58.60687268636249" y2="56.12783209244808" stroke-width="0.442619510660111" stroke="black"></line><g><line x1="78.93018208731982" x2="76.29575358436514" y1="56.12783209244808" y2="55.31374159219297" stroke-width="0.3124076095823751" stroke="black"></line></g></g></g></g></g></g></g></g><g><line x1="63.37618031661974" x2="68.90433566766413" y1="76.42409583562775" y2="72.12959646600378" stroke-width="1.13473913727342" stroke="black"></line><g><line x1="68.90433566766413" x2="76.92100174268955" y1="72.12959646600378" y2="70.49611708115306" stroke-width="0.9408815697460422" stroke="black"></line><g><line x1="76.92100174268955" x2="80.57913921410083" y1="70.49611708115306" y2="67.76837315047631" stroke-width="0.7202701225601791" stroke="black"></line><g><line x1="80.57913921410083" x2="81.80469375734063" y1="67.76837315047631" y2="65.39110091497722" stroke-width="0.5739521798306765" stroke="black"></line><g><line x1="81.80469375734063" x2="81.84050703131992" y1="65.39110091497722" y2="63.67955608002307" stroke-width="0.4823264218604723" stroke="black"></line><g><line x1="81.84050703131992" x2="81.28652788231614" y1="63.67955608002307" y2="62.56496215948009" stroke-width="0.3420332488794214" stroke="black"></line><g><line x1="81.28652788231614" x2="80.74077100368135" y1="62.56496215948009" y2="62.16598553251589" stroke-width="0.2931744635027194" stroke="black"></line><g><line x1="80.74077100368135" x2="80.2555320224337" y1="62.16598553251589" y2="62.0909548747503" stroke-width="0.2078730143344754" stroke="black"></line></g></g></g></g></g></g></g><g><line x1="68.90433566766413" x2="72.8368359040966" y1="72.12959646600378" y2="64.82820575762035" stroke-width="0.9633781126359383" stroke="black"></line><g><line x1="72.8368359040966" x2="73.1529826052899" y1="64.82820575762035" y2="57.51943365120534" stroke-width="0.8070513427809378" stroke="black"></line><g><line x1="73.1529826052899" x2="70.85836300597931" y1="57.51943365120534" y2="52.16838510775138" stroke-width="0.585145664488134" stroke="black"></line><g><line x1="70.85836300597931" x2="67.79518783038019" y1="52.16838510775138" y2="49.367632865909805" stroke-width="0.5049278432141505" stroke="black"></line><g><line x1="67.79518783038019" x2="65.37441436301447" y1="49.367632865909805" y2="48.608307524424845" stroke-width="0.3734000487859946" stroke="black"></line><g><line x1="65.37441436301447" x2="63.43457590001017" y1="48.608307524424845" y2="48.90241599615267" stroke-width="0.2987696775748221" stroke="black"></line><g><line x1="63.43457590001017" x2="62.617924833842814" y1="48.90241599615267" y2="49.47972637744638" stroke-width="0.2356396504723434" stroke="black"></line></g></g></g></g></g></g></g></g></g><g><line x1="56.42757304740507" x2="59.47953198350926" y1="78.14677615493162" y2="72.07334436951074" stroke-width="1.391723488006632" stroke="black"></line><g><line x1="59.47953198350926" x2="65.35833424714136" y1="72.07334436951074" y2="67.1595043056092" stroke-width="1.1922783656890144" stroke="black"></line><g><line x1="65.35833424714136" x2="73.43860978374161" y1="67.1595043056092" y2="65.21523798721702" stroke-width="1.0356805877386064" stroke="black"></line><g><line x1="73.43860978374161" x2="76.86016218240286" y1="65.21523798721702" y2="62.326329186830826" stroke-width="0.885922694152894" stroke="black"></line><g><line x1="76.86016218240286" x2="78.33283589468677" y1="62.326329186830826" y2="58.965437156432984" stroke-width="0.6757949478212855" stroke="black"></line><g><line x1="78.33283589468677" x2="78.2535263597199" y1="58.965437156432984" y2="55.915377837569274" stroke-width="0.5851498973658504" stroke="black"></line><g><line x1="78.2535263597199" x2="77.34705280151375" y1="55.915377837569274" y2="54.14196722624585" stroke-width="0.5065689903028228" stroke="black"></line><g><line x1="77.34705280151375" x2="76.41818459851585" y1="54.14196722624585" y2="53.455602597068264" stroke-width="0.41204584578965825" stroke="black"></line><g><line x1="76.41818459851585" x2="75.56893754144683" y1="53.455602597068264" y2="53.32605063616515" stroke-width="0.3591765065213289" stroke="black"></line></g></g></g></g></g></g></g><g><line x1="65.35833424714136" x2="68.41660007600902" y1="67.1595043056092" y2="60.334571355159426" stroke-width="0.9093318211249507" stroke="black"></line><g><line x1="68.41660007600902" x2="68.48155125750901" y1="60.334571355159426" y2="55.391953259384174" stroke-width="0.7095516389963739" stroke="black"></line><g><line x1="68.48155125750901" x2="67.13674142904215" y1="55.391953259384174" y2="52.26484972631586" stroke-width="0.6319477280272257" stroke="black"></line><g><line x1="67.13674142904215" x2="65.82789581384341" y1="52.26484972631586" y2="51.1224066319678" stroke-width="0.5464749848138258" stroke="black"></line><g><line x1="65.82789581384341" x2="64.97529428312716" y1="51.1224066319678" y2="50.86349453317322" stroke-width="0.4560897707144583" stroke="black"></line><g><line x1="64.97529428312716" x2="64.30580735173659" y1="50.86349453317322" y2="50.935314791495315" stroke-width="0.4074174382850316" stroke="black"></line><g><line x1="64.30580735173659" x2="63.97872246158793" y1="50.935314791495315" y2="51.1298528926692" stroke-width="0.30492122968885116" stroke="black"></line></g></g></g></g></g></g></g></g><g><line x1="59.47953198350926" x2="59.49146804944374" y1="72.07334436951074" y2="64.93222423423394" stroke-width="1.0350888929635744" stroke="black"></line><g><line x1="59.49146804944374" x2="62.91867978920635" y1="64.93222423423394" y2="58.055897535880135" stroke-width="0.7558339262337379" stroke="black"></line><g><line x1="62.91867978920635" x2="63.058945599646115" y1="58.055897535880135" y2="52.45918790941129" stroke-width="0.556586218701408" stroke="black"></line><g><line x1="63.058945599646115" x2="61.42268481755733" y1="52.45918790941129" y2="48.693337081122785" stroke-width="0.42564949013715075" stroke="black"></line><g><line x1="61.42268481755733" x2="59.499306912492216" y1="48.693337081122785" y2="47.067778803915026" stroke-width="0.3080636254855819" stroke="black"></line><g><line x1="59.499306912492216" x2="57.711349834463874" y1="47.067778803915026" y2="46.576229437214714" stroke-width="0.26876011744036415" stroke="black"></line><g><line x1="57.711349834463874" x2="56.22509202089206" y1="46.576229437214714" y2="46.83684116472377" stroke-width="0.209237123942208" stroke="black"></line><g><line x1="56.22509202089206" x2="55.512905155390484" y1="46.83684116472377" y2="47.31546139632277" stroke-width="0.14774039131955607" stroke="black"></line></g></g></g></g></g></g></g><g><line x1="59.49146804944374" x2="56.15554899316641" y1="64.93222423423394" y2="58.147235645391255" stroke-width="0.8429339856957486" stroke="black"></line><g><line x1="56.15554899316641" x2="50.504100594525646" y1="58.147235645391255" y2="53.7179113511627" stroke-width="0.6951127132662699" stroke="black"></line><g><line x1="50.504100594525646" x2="44.25734566405042" y1="53.7179113511627" y2="52.54230206258703" stroke-width="0.5570001384926739" stroke="black"></line><g><line x1="44.25734566405042" x2="40.04347826446093" y1="52.54230206258703" y2="53.93825967371323" stroke-width="0.47989045490452975" stroke="black"></line><g><line x1="40.04347826446093" x2="38.35502630977795" y1="53.93825967371323" y2="55.77073859334342" stroke-width="0.3551216868974635" stroke="black"></line><g><line x1="38.35502630977795" x2="37.887516645795436" y1="55.77073859334342" y2="57.87084397984999" stroke-width="0.2890653025058494" stroke="black"></line><g><line x1="37.887516645795436" x2="38.45986027259954" y1="57.87084397984999" y2="59.58300668346267" stroke-width="0.20569614466417066" stroke="black"></line></g></g></g></g></g></g></g></g></g></g><g><line x1="51.53699479234022" x2="51.51087299465209" y1="82.23803470095899" y2="74.70235848209018" stroke-width="1.6775994815402206" stroke="black"></line><g><line x1="51.51087299465209" x2="54.757411459095316" y1="74.70235848209018" y2="67.38330419054721" stroke-width="1.323598629389863" stroke="black"></line><g><line x1="54.757411459095316" x2="60.8568271283959" y1="67.38330419054721" y2="62.188736286641344" stroke-width="0.9546206312344027" stroke="black"></line><g><line x1="60.8568271283959" x2="69.79119338583891" y1="62.188736286641344" y2="59.69007903410384" stroke-width="0.6897027026015802" stroke="black"></line><g><line x1="69.79119338583891" x2="75.64872060626499" y1="59.69007903410384" y2="54.50329231477962" stroke-width="0.5180000605743375" stroke="black"></line><g><line x1="75.64872060626499" x2="77.2633856352134" y1="54.50329231477962" y2="50.45262384736795" stroke-width="0.403619139505681" stroke="black"></line><g><line x1="77.2633856352134" x2="77.09229861226417" y1="50.45262384736795" y2="47.946669680280074" stroke-width="0.3352982995834063" stroke="black"></line><g><line x1="77.09229861226417" x2="76.26197742693115" y1="47.946669680280074" y2="46.38688914483572" stroke-width="0.29435809792633705" stroke="black"></line><g><line x1="76.26197742693115" x2="74.9932828731955" y1="46.38688914483572" y2="45.43021163958705" stroke-width="0.2273625871662864" stroke="black"></line><g><line x1="74.9932828731955" x2="74.09747042930694" y1="45.43021163958705" y2="45.265764702503425" stroke-width="0.1712969908452918" stroke="black"></line></g></g></g></g></g></g></g><g><line x1="60.8568271283959" x2="64.69183656228728" y1="62.188736286641344" y2="53.79702785001182" stroke-width="0.6737201925346608" stroke="black"></line><g><line x1="64.69183656228728" x2="64.55808769179175" y1="53.79702785001182" y2="47.37914660582106" stroke-width="0.5646924547256731" stroke="black"></line><g><line x1="64.55808769179175" x2="62.78044023668882" y1="47.37914660582106" y2="43.68421720934796" stroke-width="0.45341060239609154" stroke="black"></line><g><line x1="62.78044023668882" x2="61.15107822787726" y1="43.68421720934796" y2="42.337555827821056" stroke-width="0.38440495282123766" stroke="black"></line><g><line x1="61.15107822787726" x2="60.10385391284686" y1="42.337555827821056" y2="42.03741015009952" stroke-width="0.336153398821772" stroke="black"></line><g><line x1="60.10385391284686" x2="59.3010895697671" y1="42.03741015009952" y2="42.13666186208592" stroke-width="0.28997034736052757" stroke="black"></line><g><line x1="59.3010895697671" x2="58.82259393700733" y1="42.13666186208592" y2="42.42860433445157" stroke-width="0.20340891345318415" stroke="black"></line></g></g></g></g></g></g></g></g><g><line x1="54.757411459095316" x2="54.79134630994267" y1="67.38330419054721" y2="57.865728877844845" stroke-width="1.157404788696992" stroke="black"></line><g></g><g><line x1="54.79134630994267" x2="50.73473354574272" y1="57.865728877844845" y2="49.03038694611008" stroke-width="0.8592811249971656" stroke="black"></line><g><line x1="50.73473354574272" x2="45.013815794687076" y1="49.03038694611008" y2="44.17052275937917" stroke-width="0.6638195184417667" stroke="black"></line><g><line x1="45.013815794687076" x2="40.19816944775238" y1="44.17052275937917" y2="42.89003327377805" stroke-width="0.5793426501717147" stroke="black"></line><g><line x1="40.19816944775238" x2="35.94813062381161" y1="42.89003327377805" y2="43.68294612359558" stroke-width="0.4096645005147346" stroke="black"></line><g><line x1="35.94813062381161" x2="33.19301052658347" y1="43.68294612359558" y2="45.67964965450576" stroke-width="0.33995097584540257" stroke="black"></line><g><line x1="33.19301052658347" x2="32.2028372491201" y1="45.67964965450576" y2="47.47679265403182" stroke-width="0.3045071578112343" stroke="black"></line><g><line x1="32.2028372491201" x2="32.10266766730887" y1="47.47679265403182" y2="48.54669879809718" stroke-width="0.2640836676528236" stroke="black"></line></g></g></g></g></g></g></g></g></g><g></g></g></g><g><line x1="48.7" x2="45.78269669303253" y1="88" y2="82.01714205941698" stroke-width="2.0386797764288915" stroke="black"></line><g><line x1="45.78269669303253" x2="45.52645253249885" y1="82.01714205941698" y2="75.64021115072742" stroke-width="1.4390901646423955" stroke="black"></line><g><line x1="45.52645253249885" x2="48.384660499901244" y1="75.64021115072742" y2="69.33331929123072" stroke-width="1.286100218249803" stroke="black"></line><g><line x1="48.384660499901244" x2="54.773565691183265" y1="69.33331929123072" y2="64.18859213774306" stroke-width="1.1563350566103143" stroke="black"></line><g><line x1="54.773565691183265" x2="63.031755680810676" y1="64.18859213774306" y2="61.91759771250745" stroke-width="0.8171442935990839" stroke="black"></line><g><line x1="63.031755680810676" x2="66.85505547377245" y1="61.91759771250745" y2="58.73913589991968" stroke-width="0.7283785733898286" stroke="black"></line><g><line x1="66.85505547377245" x2="68.62663884289168" y1="58.73913589991968" y2="55.08319164513645" stroke-width="0.5844006042817254" stroke="black"></line><g><line x1="68.62663884289168" x2="68.60873007839973" y1="55.08319164513645" y2="52.12266235872082" stroke-width="0.5076166323495488" stroke="black"></line><g><line x1="68.60873007839973" x2="67.87412408321157" y1="52.12266235872082" y2="50.56501026759545" stroke-width="0.3898543093406736" stroke="black"></line><g><line x1="67.87412408321157" x2="67.1985100224183" y1="50.56501026759545" y2="49.978285566333525" stroke-width="0.3177232973761142" stroke="black"></line><g><line x1="67.1985100224183" x2="66.53962788693858" y1="49.978285566333525" y2="49.77504871291558" stroke-width="0.2576158495725063" stroke="black"></line></g></g></g></g></g></g></g><g><line x1="54.773565691183265" x2="58.727999658665475" y1="64.18859213774306" y2="55.58898177815367" stroke-width="0.9432189167756664" stroke="black"></line><g><line x1="58.727999658665475" x2="58.66780529670315" y1="55.58898177815367" y2="47.19659049459395" stroke-width="0.7081449649590561" stroke="black"></line><g><line x1="58.66780529670315" x2="56.587712204459855" y1="47.19659049459395" y2="42.4712977156918" stroke-width="0.5534725676341702" stroke="black"></line><g><line x1="56.587712204459855" x2="53.047977205916645" y1="42.4712977156918" y2="39.08250607371571" stroke-width="0.46956533543377127" stroke="black"></line><g><line x1="53.047977205916645" x2="49.91124674733897" y1="39.08250607371571" y2="37.967226252870766" stroke-width="0.4036901295308523" stroke="black"></line><g><line x1="49.91124674733897" x2="47.776581180386906" y1="37.967226252870766" y2="38.08028141836043" stroke-width="0.2890598725818309" stroke="black"></line><g><line x1="47.776581180386906" x2="46.36808682896976" y1="38.08028141836043" y2="38.80513425295568" stroke-width="0.2071275986071445" stroke="black"></line></g></g></g></g></g></g></g></g><g><line x1="48.384660499901244" x2="48.3713901864043" y1="69.33331929123072" y2="61.032768843094345" stroke-width="1.0111019857793275" stroke="black"></line><g><line x1="48.3713901864043" x2="51.817684861259956" y1="61.032768843094345" y2="53.36049657300347" stroke-width="0.8692870843732202" stroke="black"></line><g><line x1="51.817684861259956" x2="51.62005654544064" y1="53.36049657300347" y2="45.99880736990221" stroke-width="0.778832308237916" stroke="black"></line><g><line x1="51.62005654544064" x2="49.460159151835555" y1="45.99880736990221" y2="41.59630656180031" stroke-width="0.6575878118321359" stroke="black"></line><g><line x1="49.460159151835555" x2="46.25126755462574" y1="41.59630656180031" y2="38.94065784088849" stroke-width="0.49212397744413167" stroke="black"></line><g><line x1="46.25126755462574" x2="43.66893952698605" y1="38.94065784088849" y2="38.214110803632344" stroke-width="0.3826874402296146" stroke="black"></line><g><line x1="43.66893952698605" x2="42.12620649090561" y1="38.214110803632344" y2="38.45214547310807" stroke-width="0.2721613859301891" stroke="black"></line><g><line x1="42.12620649090561" x2="40.99420146398232" y1="38.45214547310807" y2="39.22290527494458" stroke-width="0.2366495501926528" stroke="black"></line></g></g></g></g></g></g></g><g><line x1="48.3713901864043" x2="44.631493199868444" y1="61.032768843094345" y2="53.65502278636672" stroke-width="0.7787302459063231" stroke="black"></line><g><line x1="44.631493199868444" x2="39.93307693835708" y1="53.65502278636672" y2="50.14612309453054" stroke-width="0.6355383960196964" stroke="black"></line><g><line x1="39.93307693835708" x2="34.89076880962915" y1="50.14612309453054" y2="49.33064815900418" stroke-width="0.4734764753995289" stroke="black"></line><g><line x1="34.89076880962915" x2="31.252539296920304" y1="49.33064815900418" y2="50.41535689062034" stroke-width="0.37401742708115676" stroke="black"></line><g><line x1="31.252539296920304" x2="29.52151167252276" y1="50.41535689062034" y2="52.01758965049288" stroke-width="0.29990195264025654" stroke="black"></line><g><line x1="29.52151167252276" x2="28.834403282522057" y1="52.01758965049288" y2="53.66349207786217" stroke-width="0.24800659724874438" stroke="black"></line><g><line x1="28.834403282522057" x2="28.87101893877794" y1="53.66349207786217" y2="55.157999879423926" stroke-width="0.22225689005153243" stroke="black"></line></g></g></g></g></g></g></g></g></g><g><line x1="45.52645253249885" x2="42.58703658526196" y1="75.64021115072742" y2="69.58107814647745" stroke-width="1.2074366150038098" stroke="black"></line><g><line x1="42.58703658526196" x2="42.3520404139164" y1="69.58107814647745" y2="62.19327904722091" stroke-width="0.9774031816215611" stroke="black"></line><g><line x1="42.3520404139164" x2="45.33638356189978" y1="62.19327904722091" y2="54.93259008407684" stroke-width="0.8651516402503983" stroke="black"></line><g><line x1="45.33638356189978" x2="45.09116352853512" y1="54.93259008407684" y2="50.66616117401834" stroke-width="0.664655570498958" stroke="black"></line><g><line x1="45.09116352853512" x2="43.318339347375016" y1="50.66616117401834" y2="47.4616802278379" stroke-width="0.49062050431487675" stroke="black"></line><g><line x1="43.318339347375016" x2="40.53835074385019" y1="47.4616802278379" y2="45.37623146850547" stroke-width="0.3693770172474114" stroke="black"></line><g><line x1="40.53835074385019" x2="38.34731437941446" y1="45.37623146850547" y2="44.93264858163194" stroke-width="0.3181935119411195" stroke="black"></line><g><line x1="38.34731437941446" x2="37.08553906809467" y1="44.93264858163194" y2="45.24298615952083" stroke-width="0.2643242390172787" stroke="black"></line><g><line x1="37.08553906809467" x2="36.16215053481082" y1="45.24298615952083" y2="45.95871006469315" stroke-width="0.18526084412742355" stroke="black"></line></g></g></g></g></g></g></g><g><line x1="42.3520404139164" x2="38.578722697761485" y1="62.19327904722091" y2="54.3875982183239" stroke-width="0.7614592503771292" stroke="black"></line><g><line x1="38.578722697761485" x2="33.82654879212193" y1="54.3875982183239" y2="50.62332345390621" stroke-width="0.5628046066886805" stroke="black"></line><g><line x1="33.82654879212193" x2="29.873482115459993" y1="50.62332345390621" y2="49.851001095924296" stroke-width="0.5015676893538041" stroke="black"></line><g><line x1="29.873482115459993" x2="27.708527564163656" y1="49.851001095924296" y2="50.487927765170184" stroke-width="0.41033408411993444" stroke="black"></line><g><line x1="27.708527564163656" x2="26.34589690193468" y1="50.487927765170184" y2="51.840536997420735" stroke-width="0.3396386390168843" stroke="black"></line><g><line x1="26.34589690193468" x2="25.901861895806736" y1="51.840536997420735" y2="53.16809012425468" stroke-width="0.2844391795391426" stroke="black"></line><g><line x1="25.901861895806736" x2="26.03480828795453" y1="53.16809012425468" y2="54.058411654314305" stroke-width="0.24603431198769332" stroke="black"></line></g></g></g></g></g></g></g></g><g><line x1="42.58703658526196" x2="36.87658885733921" y1="69.58107814647745" y2="64.77956926791661" stroke-width="1.0357417285754005" stroke="black"></line><g><line x1="36.87658885733921" x2="33.56859128173127" y1="64.77956926791661" y2="57.536470001834545" stroke-width="0.8387845164776608" stroke="black"></line><g><line x1="33.56859128173127" x2="28.949436702660527" y1="57.536470001834545" y2="53.73093812992602" stroke-width="0.7068094538629582" stroke="black"></line><g><line x1="28.949436702660527" x2="24.268393047453753" y1="53.73093812992602" y2="52.712165055372445" stroke-width="0.5052644092822027" stroke="black"></line><g><line x1="24.268393047453753" x2="21.256026553824817" y1="52.712165055372445" y2="53.564862261937826" stroke-width="0.3860334996940524" stroke="black"></line><g><line x1="21.256026553824817" x2="19.2617469800478" y1="53.564862261937826" y2="55.507865999970655" stroke-width="0.33642407447872497" stroke="black"></line><g><line x1="19.2617469800478" x2="18.697543823958082" y1="55.507865999970655" y2="57.36707548975257" stroke-width="0.2400924046282766" stroke="black"></line><g><line x1="18.697543823958082" x2="19.127068626685915" y1="57.36707548975257" y2="59.11971808188278" stroke-width="0.19795620274125197" stroke="black"></line></g></g></g></g></g></g></g><g><line x1="36.87658885733921" x2="28.770542218733354" y1="64.77956926791661" y2="62.58497809576325" stroke-width="0.9151587792882728" stroke="black"></line><g><line x1="28.770542218733354" x2="23.179212950212992" y1="62.58497809576325" y2="63.43992222169731" stroke-width="0.7813429937444281" stroke="black"></line><g><line x1="23.179212950212992" x2="19.35469491632623" y1="63.43992222169731" y2="65.93977592198877" stroke-width="0.6937091338513384" stroke="black"></line><g><line x1="19.35469491632623" x2="17.54615636905135" y1="65.93977592198877" y2="68.8106723578164" stroke-width="0.5202541077960489" stroke="black"></line><g><line x1="17.54615636905135" x2="17.15833017908622" y1="68.8106723578164" y2="71.86252677163239" stroke-width="0.38912037858295373" stroke="black"></line><g><line x1="17.15833017908622" x2="17.71979362917901" y1="71.86252677163239" y2="73.57778707593837" stroke-width="0.32968997578454534" stroke="black"></line><g><line x1="17.71979362917901" x2="18.82966767527397" y1="73.57778707593837" y2="74.74897645138107" stroke-width="0.2940267694049185" stroke="black"></line></g></g></g></g></g></g></g></g></g></g><g><line x1="45.78269669303253" x2="40.60671552250342" y1="82.01714205941698" y2="77.57638299612996" stroke-width="1.619347741118625" stroke="black"></line><g><line x1="40.60671552250342" x2="37.64350216379523" y1="77.57638299612996" y2="70.72235246632779" stroke-width="1.234062384918586" stroke="black"></line><g><line x1="37.64350216379523" x2="37.80371382177894" y1="70.72235246632779" y2="62.20045068602714" stroke-width="0.9708811987537599" stroke="black"></line><g></g><g><line x1="37.80371382177894" x2="34.288751711398774" y1="62.20045068602714" y2="54.431738301450665" stroke-width="0.8649751636550492" stroke="black"></line><g><line x1="34.288751711398774" x2="28.79506422193921" y1="54.431738301450665" y2="49.87579895684564" stroke-width="0.7216721775452475" stroke="black"></line><g><line x1="28.79506422193921" x2="24.350939625850252" y1="49.87579895684564" y2="48.81497501308897" stroke-width="0.5584764078044449" stroke="black"></line><g><line x1="24.350939625850252" x2="21.222795873696434" y1="48.81497501308897" y2="49.446216791186714" stroke-width="0.48028261864458394" stroke="black"></line><g><line x1="21.222795873696434" x2="19.11348612036745" y1="49.446216791186714" y2="50.921493960150805" stroke-width="0.3585987363772719" stroke="black"></line><g><line x1="19.11348612036745" x2="17.8926423629582" y1="50.921493960150805" y2="52.94273000719581" stroke-width="0.31949754844035466" stroke="black"></line><g><line x1="17.8926423629582" x2="17.728922792173215" y1="52.94273000719581" y2="54.61231964266227" stroke-width="0.22997431190208356" stroke="black"></line></g></g></g></g></g></g></g></g><g><line x1="37.64350216379523" x2="32.156880706212256" y1="70.72235246632779" y2="65.99216066071207" stroke-width="1.0092365903253049" stroke="black"></line><g><line x1="32.156880706212256" x2="29.459630305176436" y1="65.99216066071207" y2="59.49431786415219" stroke-width="0.8308179038577469" stroke="black"></line><g><line x1="29.459630305176436" x2="26.731160639221795" y1="59.49431786415219" y2="56.875091984080946" stroke-width="0.7405379212051711" stroke="black"></line><g><line x1="26.731160639221795" x2="24.705986268674643" y1="56.875091984080946" y2="56.09218161631988" stroke-width="0.6145119211717295" stroke="black"></line><g><line x1="24.705986268674643" x2="23.258014662926538" y1="56.09218161631988" y2="56.13945929778293" stroke-width="0.5223635976266755" stroke="black"></line><g><line x1="23.258014662926538" x2="22.399667379450513" y1="56.13945929778293" y2="56.514266243298124" stroke-width="0.4319822286079127" stroke="black"></line><g><line x1="22.399667379450513" x2="21.88003695992138" y1="56.514266243298124" y2="57.013446638114694" stroke-width="0.3520954708123428" stroke="black"></line><g><line x1="21.88003695992138" x2="21.6178056667524" y1="57.013446638114694" y2="57.53172132876141" stroke-width="0.31531571763397015" stroke="black"></line></g></g></g></g></g></g></g><g><line x1="32.156880706212256" x2="25.356875691214405" y1="65.99216066071207" y2="64.00988962902133" stroke-width="0.7846749227597379" stroke="black"></line><g><line x1="25.356875691214405" x2="19.09672821879758" y1="64.00988962902133" y2="65.13864774235225" stroke-width="0.6245289462365067" stroke="black"></line><g><line x1="19.09672821879758" x2="15.484127637011536" y1="65.13864774235225" y2="67.93009765275613" stroke-width="0.4679825807035269" stroke="black"></line><g><line x1="15.484127637011536" x2="14.261732649150922" y1="67.93009765275613" y2="70.80418925726875" stroke-width="0.41604981684638187" stroke="black"></line><g><line x1="14.261732649150922" x2="14.56913353043183" y1="70.80418925726875" y2="73.22269461852157" stroke-width="0.30301597303060657" stroke="black"></line><g><line x1="14.56913353043183" x2="15.614595357226962" y1="73.22269461852157" y2="74.65976055632787" stroke-width="0.2664248546718219" stroke="black"></line><g><line x1="15.614595357226962" x2="16.73815589099114" y1="74.65976055632787" y2="75.17701170577101" stroke-width="0.2164785631474713" stroke="black"></line></g></g></g></g></g></g></g></g></g><g><line x1="40.60671552250342" x2="33.293053351819665" y1="77.57638299612996" y2="75.52329721113468" stroke-width="1.3841651037053169" stroke="black"></line><g><line x1="33.293053351819665" x2="27.136351288137043" y1="75.52329721113468" y2="69.87789627867306" stroke-width="1.0428507292220652" stroke="black"></line><g><line x1="27.136351288137043" x2="24.056772359498197" y1="69.87789627867306" y2="61.91962319785076" stroke-width="0.9272994143855345" stroke="black"></line><g><line x1="24.056772359498197" x2="18.934977448599696" y1="61.91962319785076" y2="57.181035045701485" stroke-width="0.7118713822112562" stroke="black"></line><g><line x1="18.934977448599696" x2="13.774113326212404" y1="57.181035045701485" y2="55.68087977747701" stroke-width="0.593768053216427" stroke="black"></line><g><line x1="13.774113326212404" x2="9.999887954905628" y1="55.68087977747701" y2="56.35010119989358" stroke-width="0.4192394711451298" stroke="black"></line><g><line x1="9.999887954905628" x2="7.484440372167674" y1="56.35010119989358" y2="58.11618385306397" stroke-width="0.3431889920228141" stroke="black"></line><g><line x1="7.484440372167674" x2="6.104590280103476" y1="58.11618385306397" y2="60.46375758434169" stroke-width="0.2684787130193602" stroke="black"></line><g><line x1="6.104590280103476" x2="5.957071999219293" y1="60.46375758434169" y2="62.35660578039502" stroke-width="0.23114720267663888" stroke="black"></line></g></g></g></g></g></g></g><g><line x1="27.136351288137043" x2="18.36910367316031" y1="69.87789627867306" y2="67.26464177172709" stroke-width="0.8538304963383947" stroke="black"></line><g><line x1="18.36910367316031" x2="13.036607680220339" y1="67.26464177172709" y2="68.00273458039224" stroke-width="0.6989180931819848" stroke="black"></line><g><line x1="13.036607680220339" x2="10.322866780053769" y1="68.00273458039224" y2="69.71550492024576" stroke-width="0.5751236506287053" stroke="black"></line><g><line x1="10.322866780053769" x2="8.625210290235671" y1="69.71550492024576" y2="72.17996962553694" stroke-width="0.5013826117842594" stroke="black"></line><g><line x1="8.625210290235671" x2="8.269104846103293" y1="72.17996962553694" y2="74.04023940693963" stroke-width="0.45034021237607125" stroke="black"></line><g><line x1="8.269104846103293" x2="8.467130179886668" y1="74.04023940693963" y2="75.03888231808499" stroke-width="0.36405956394252814" stroke="black"></line><g><line x1="8.467130179886668" x2="8.962417795749555" y1="75.03888231808499" y2="75.7683356003363" stroke-width="0.3166023633054938" stroke="black"></line></g></g></g></g></g></g></g></g><g><line x1="33.293053351819665" x2="25.931355276520904" y1="75.52329721113468" y2="76.95762310972574" stroke-width="0.9922897726560338" stroke="black"></line><g><line x1="25.931355276520904" x2="18.91573106477444" y1="76.95762310972574" y2="74.97542396461424" stroke-width="0.8835921524706828" stroke="black"></line><g><line x1="18.91573106477444" x2="14.143577289471157" y1="74.97542396461424" y2="75.67923097814625" stroke-width="0.6405375797188201" stroke="black"></line><g><line x1="14.143577289471157" x2="10.321780738716239" y1="75.67923097814625" y2="78.01599098105804" stroke-width="0.49218787952606896" stroke="black"></line><g><line x1="10.321780738716239" x2="8.590814231172445" y1="78.01599098105804" y2="80.30636386695363" stroke-width="0.3627406374364831" stroke="black"></line><g><line x1="8.590814231172445" x2="7.8911347047963805" y1="80.30636386695363" y2="82.67359750504548" stroke-width="0.3004117543245267" stroke="black"></line><g><line x1="7.8911347047963805" x2="8.035923384638808" y1="82.67359750504548" y2="84.6151810167735" stroke-width="0.25563137682794207" stroke="black"></line><g><line x1="8.035923384638808" x2="8.705518975852325" y1="84.6151810167735" y2="85.97112298730113" stroke-width="0.19916239604254773" stroke="black"></line></g></g></g></g></g></g></g><g></g></g></g></g></g></g></svg>
